<?xml version="1.0" encoding="iso-8859-1"?>

<svg xmlns="http://www.w3.org/2000/svg" xmlns:xlink="http://www.w3.org/1999/xlink" version="1.1" id="Capa_1" x="0px" y="0px" viewBox="0 0 512 512" style="enable-background:new 0 0 512 512;" xml:space="preserve" width="512" height="512">
<g>
	<path fill-rule="evenodd"  fill="rgb(255, 255, 255)" d="M465.502,374.085C442.05,385.965,416.972,392,391,392c-90.981,0-165-75.019-165-166   c0-89.106,72.539-164.052,161.689-165.824c6.782-0.132,12.627-4.805,14.268-11.382c1.626-6.577-1.348-13.433-7.266-16.729   C356.957,11.089,314.198,0,271,0C130.39,0,16,115.39,16,256s114.39,256,255,256c86.587,0,166.538-43.506,213.867-116.367   c3.691-5.698,3.105-13.154-1.421-18.193C478.891,372.386,471.552,370.994,465.502,374.085z"/>
	<path fill-rule="evenodd"  fill="rgb(255, 255, 255)" d="M376,136c0-8.291-6.709-15-15-15s-15,6.709-15,15c0,24.814-20.186,45-45,45c-8.291,0-15,6.709-15,15s6.709,15,15,15   c24.814,0,45,20.186,45,45c0,8.291,6.709,15,15,15s15-6.709,15-15c0-24.814,20.186-45,45-45c8.291,0,15-6.709,15-15   s-6.709-15-15-15C396.186,181,376,160.814,376,136z"/>
	<path fill-rule="evenodd"  fill="rgb(255, 255, 255)" d="M481,271c-8.276,0-15-6.724-15-15c0-8.291-6.709-15-15-15s-15,6.709-15,15c0,8.276-6.724,15-15,15c-8.291,0-15,6.709-15,15   s6.709,15,15,15c8.276,0,15,6.724,15,15c0,8.291,6.709,15,15,15s15-6.709,15-15c0-8.276,6.724-15,15-15c8.291,0,15-6.709,15-15   S489.291,271,481,271z"/>
</g>


</svg>
